<svg width="937" height="905" viewBox="0 0 937 905" fill="none" xmlns="http://www.w3.org/2000/svg">
<g filter="url(#filter0_d_5_24)">
<mask id="path-1-outside-1_5_24" maskUnits="userSpaceOnUse" x="3" y="245" width="931" height="538" fill="black">
<rect fill="white" x="3" y="245" width="931" height="538"/>
<path d="M261.469 436.297L395.844 303.484L367.719 270.672L206.781 430.047V282H165.375V605.047H206.781V482.781C211.208 479.135 214.984 475.88 218.109 473.016C221.495 469.891 225.271 466.505 229.438 462.859L357.172 612.469L390.766 583.562L261.469 436.297ZM297.406 246.844C323.708 246.844 347.536 250.75 368.891 258.562C390.245 266.375 408.344 277.052 423.188 290.594C438.292 304.135 449.88 320.021 457.953 338.25C466.026 356.219 470.062 375.359 470.062 395.672V633.172C470.062 653.484 466.026 672.755 457.953 690.984C449.88 708.953 438.292 724.708 423.188 738.25C408.344 751.792 390.245 762.469 368.891 770.281C347.536 778.094 323.708 782 297.406 782H177.094C150.792 782 126.964 778.094 105.609 770.281C84.2552 762.469 66.026 751.792 50.9219 738.25C36.0781 724.708 24.6198 708.953 16.5469 690.984C8.47396 672.755 4.4375 653.484 4.4375 633.172V395.672C4.4375 375.359 8.47396 356.219 16.5469 338.25C24.6198 320.021 36.0781 304.135 50.9219 290.594C66.026 277.052 84.2552 266.375 105.609 258.562C126.964 250.75 150.792 246.844 177.094 246.844H297.406ZM608.344 563.641V605.047H834.125V563.641H742.328V323.406H834.125V282H608.344V323.406H700.531V563.641H608.344ZM759.906 246.844C786.208 246.844 810.036 250.75 831.391 258.562C852.745 266.375 870.844 277.052 885.688 290.594C900.792 304.135 912.38 320.021 920.453 338.25C928.526 356.219 932.562 375.359 932.562 395.672V633.172C932.562 653.484 928.526 672.755 920.453 690.984C912.38 708.953 900.792 724.708 885.688 738.25C870.844 751.792 852.745 762.469 831.391 770.281C810.036 778.094 786.208 782 759.906 782H639.594C613.292 782 589.464 778.094 568.109 770.281C546.755 762.469 528.526 751.792 513.422 738.25C498.578 724.708 487.12 708.953 479.047 690.984C470.974 672.755 466.938 653.484 466.938 633.172V395.672C466.938 375.359 470.974 356.219 479.047 338.25C487.12 320.021 498.578 304.135 513.422 290.594C528.526 277.052 546.755 266.375 568.109 258.562C589.464 250.75 613.292 246.844 639.594 246.844H759.906Z"/>
</mask>
<path d="M261.469 436.297L395.844 303.484L367.719 270.672L206.781 430.047V282H165.375V605.047H206.781V482.781C211.208 479.135 214.984 475.88 218.109 473.016C221.495 469.891 225.271 466.505 229.438 462.859L357.172 612.469L390.766 583.562L261.469 436.297ZM297.406 246.844C323.708 246.844 347.536 250.75 368.891 258.562C390.245 266.375 408.344 277.052 423.188 290.594C438.292 304.135 449.88 320.021 457.953 338.25C466.026 356.219 470.062 375.359 470.062 395.672V633.172C470.062 653.484 466.026 672.755 457.953 690.984C449.88 708.953 438.292 724.708 423.188 738.25C408.344 751.792 390.245 762.469 368.891 770.281C347.536 778.094 323.708 782 297.406 782H177.094C150.792 782 126.964 778.094 105.609 770.281C84.2552 762.469 66.026 751.792 50.9219 738.25C36.0781 724.708 24.6198 708.953 16.5469 690.984C8.47396 672.755 4.4375 653.484 4.4375 633.172V395.672C4.4375 375.359 8.47396 356.219 16.5469 338.25C24.6198 320.021 36.0781 304.135 50.9219 290.594C66.026 277.052 84.2552 266.375 105.609 258.562C126.964 250.75 150.792 246.844 177.094 246.844H297.406ZM608.344 563.641V605.047H834.125V563.641H742.328V323.406H834.125V282H608.344V323.406H700.531V563.641H608.344ZM759.906 246.844C786.208 246.844 810.036 250.75 831.391 258.562C852.745 266.375 870.844 277.052 885.688 290.594C900.792 304.135 912.38 320.021 920.453 338.25C928.526 356.219 932.562 375.359 932.562 395.672V633.172C932.562 653.484 928.526 672.755 920.453 690.984C912.38 708.953 900.792 724.708 885.688 738.25C870.844 751.792 852.745 762.469 831.391 770.281C810.036 778.094 786.208 782 759.906 782H639.594C613.292 782 589.464 778.094 568.109 770.281C546.755 762.469 528.526 751.792 513.422 738.25C498.578 724.708 487.12 708.953 479.047 690.984C470.974 672.755 466.938 653.484 466.938 633.172V395.672C466.938 375.359 470.974 356.219 479.047 338.25C487.12 320.021 498.578 304.135 513.422 290.594C528.526 277.052 546.755 266.375 568.109 258.562C589.464 250.75 613.292 246.844 639.594 246.844H759.906Z" fill="white"/>
<path d="M261.469 436.297L260.766 435.586L260.095 436.248L260.717 436.957L261.469 436.297ZM395.844 303.484L396.547 304.196L397.209 303.541L396.603 302.834L395.844 303.484ZM367.719 270.672L368.478 270.021L367.779 269.205L367.015 269.961L367.719 270.672ZM206.781 430.047H205.781V432.445L207.485 430.757L206.781 430.047ZM206.781 282H207.781V281H206.781V282ZM165.375 282V281H164.375V282H165.375ZM165.375 605.047H164.375V606.047H165.375V605.047ZM206.781 605.047V606.047H207.781V605.047H206.781ZM206.781 482.781L206.146 482.009L205.781 482.309V482.781H206.781ZM218.109 473.016L218.785 473.753L218.788 473.75L218.109 473.016ZM229.438 462.859L230.198 462.21L229.541 461.44L228.779 462.107L229.438 462.859ZM357.172 612.469L356.411 613.118L357.063 613.882L357.824 613.227L357.172 612.469ZM390.766 583.562L391.418 584.321L392.183 583.662L391.517 582.903L390.766 583.562ZM423.188 290.594L422.514 291.333L422.52 291.338L423.188 290.594ZM457.953 338.25L457.039 338.655L457.041 338.66L457.953 338.25ZM457.953 690.984L458.865 691.394L458.867 691.389L457.953 690.984ZM423.188 738.25L422.52 737.505L422.514 737.511L423.188 738.25ZM50.9219 738.25L50.2479 738.989L50.2543 738.995L50.9219 738.25ZM16.5469 690.984L15.6325 691.389L15.6347 691.394L16.5469 690.984ZM16.5469 338.25L17.4591 338.66L17.4612 338.655L16.5469 338.25ZM50.9219 290.594L50.2543 289.849L50.2479 289.855L50.9219 290.594ZM262.172 437.008L396.547 304.196L395.141 302.773L260.766 435.586L262.172 437.008ZM396.603 302.834L368.478 270.021L366.959 271.323L395.084 304.135L396.603 302.834ZM367.015 269.961L206.078 429.336L207.485 430.757L368.422 271.382L367.015 269.961ZM207.781 430.047V282H205.781V430.047H207.781ZM206.781 281H165.375V283H206.781V281ZM164.375 282V605.047H166.375V282H164.375ZM165.375 606.047H206.781V604.047H165.375V606.047ZM207.781 605.047V482.781H205.781V605.047H207.781ZM207.417 483.553C211.853 479.9 215.643 476.633 218.785 473.753L217.434 472.278C214.325 475.128 210.563 478.371 206.146 482.009L207.417 483.553ZM218.788 473.75C222.165 470.632 225.935 467.253 230.096 463.612L228.779 462.107C224.607 465.757 220.824 469.149 217.431 472.281L218.788 473.75ZM228.677 463.509L356.411 613.118L357.932 611.819L230.198 462.21L228.677 463.509ZM357.824 613.227L391.418 584.321L390.113 582.804L356.52 611.711L357.824 613.227ZM391.517 582.903L262.22 435.637L260.717 436.957L390.014 584.222L391.517 582.903ZM297.406 247.844C323.609 247.844 347.319 251.735 368.547 259.502L369.234 257.623C347.754 249.765 323.807 245.844 297.406 245.844V247.844ZM368.547 259.502C389.795 267.275 407.778 277.889 422.514 291.333L423.861 289.855C408.91 276.215 390.694 265.475 369.234 257.623L368.547 259.502ZM422.52 291.338C437.521 304.787 449.024 320.557 457.039 338.655L458.867 337.845C450.736 319.484 439.063 303.484 423.855 289.849L422.52 291.338ZM457.041 338.66C465.054 356.496 469.062 375.496 469.062 395.672H471.062C471.062 375.223 466.998 355.942 458.865 337.84L457.041 338.66ZM469.062 395.672V633.172H471.062V395.672H469.062ZM469.062 633.172C469.062 653.348 465.054 672.48 457.039 690.579L458.867 691.389C466.998 673.03 471.062 653.621 471.062 633.172H469.062ZM457.041 690.575C449.027 708.412 437.523 724.054 422.52 737.505L423.855 738.995C439.06 725.362 450.733 709.494 458.865 691.394L457.041 690.575ZM422.514 737.511C407.778 750.954 389.795 761.568 368.547 769.342L369.234 771.22C390.694 763.369 408.91 752.629 423.861 738.989L422.514 737.511ZM368.547 769.342C347.319 777.109 323.609 781 297.406 781V783C323.807 783 347.754 779.079 369.234 771.22L368.547 769.342ZM297.406 781H177.094V783H297.406V781ZM177.094 781C150.891 781 127.181 777.109 105.953 769.342L105.266 771.22C126.746 779.079 150.693 783 177.094 783V781ZM105.953 769.342C84.7038 761.568 66.5882 750.953 51.5894 737.505L50.2543 738.995C65.4639 752.631 83.8066 763.369 105.266 771.22L105.953 769.342ZM51.5958 737.511C36.8511 724.06 25.4748 708.416 17.459 690.575L15.6347 691.394C23.7648 709.49 35.3052 725.357 50.2479 738.989L51.5958 737.511ZM17.4612 690.579C9.44587 672.48 5.4375 653.348 5.4375 633.172H3.4375C3.4375 653.621 7.50205 673.03 15.6325 691.389L17.4612 690.579ZM5.4375 633.172V395.672H3.4375V633.172H5.4375ZM5.4375 395.672C5.4375 375.496 9.44585 356.496 17.459 338.66L15.6347 337.84C7.50207 355.942 3.4375 375.223 3.4375 395.672H5.4375ZM17.4612 338.655C25.4776 320.554 36.8537 304.782 51.5958 291.333L50.2479 289.855C35.3026 303.489 23.762 319.488 15.6325 337.845L17.4612 338.655ZM51.5894 291.338C66.5882 277.891 84.7038 267.276 105.953 259.502L105.266 257.623C83.8066 265.474 65.4639 276.213 50.2543 289.849L51.5894 291.338ZM105.953 259.502C127.181 251.735 150.891 247.844 177.094 247.844V245.844C150.693 245.844 126.746 249.765 105.266 257.623L105.953 259.502ZM177.094 247.844H297.406V245.844H177.094V247.844ZM608.344 563.641V562.641H607.344V563.641H608.344ZM608.344 605.047H607.344V606.047H608.344V605.047ZM834.125 605.047V606.047H835.125V605.047H834.125ZM834.125 563.641H835.125V562.641H834.125V563.641ZM742.328 563.641H741.328V564.641H742.328V563.641ZM742.328 323.406V322.406H741.328V323.406H742.328ZM834.125 323.406V324.406H835.125V323.406H834.125ZM834.125 282H835.125V281H834.125V282ZM608.344 282V281H607.344V282H608.344ZM608.344 323.406H607.344V324.406H608.344V323.406ZM700.531 323.406H701.531V322.406H700.531V323.406ZM700.531 563.641V564.641H701.531V563.641H700.531ZM885.688 290.594L885.014 291.333L885.02 291.338L885.688 290.594ZM920.453 338.25L919.539 338.655L919.541 338.66L920.453 338.25ZM920.453 690.984L921.365 691.394L921.367 691.389L920.453 690.984ZM885.688 738.25L885.02 737.505L885.014 737.511L885.688 738.25ZM513.422 738.25L512.748 738.989L512.754 738.995L513.422 738.25ZM479.047 690.984L478.133 691.389L478.135 691.394L479.047 690.984ZM479.047 338.25L479.959 338.66L479.961 338.655L479.047 338.25ZM513.422 290.594L512.754 289.849L512.748 289.855L513.422 290.594ZM607.344 563.641V605.047H609.344V563.641H607.344ZM608.344 606.047H834.125V604.047H608.344V606.047ZM835.125 605.047V563.641H833.125V605.047H835.125ZM834.125 562.641H742.328V564.641H834.125V562.641ZM743.328 563.641V323.406H741.328V563.641H743.328ZM742.328 324.406H834.125V322.406H742.328V324.406ZM835.125 323.406V282H833.125V323.406H835.125ZM834.125 281H608.344V283H834.125V281ZM607.344 282V323.406H609.344V282H607.344ZM608.344 324.406H700.531V322.406H608.344V324.406ZM699.531 323.406V563.641H701.531V323.406H699.531ZM700.531 562.641H608.344V564.641H700.531V562.641ZM759.906 247.844C786.109 247.844 809.819 251.735 831.047 259.502L831.734 257.623C810.254 249.765 786.307 245.844 759.906 245.844V247.844ZM831.047 259.502C852.295 267.275 870.278 277.889 885.014 291.333L886.361 289.855C871.41 276.215 853.194 265.475 831.734 257.623L831.047 259.502ZM885.02 291.338C900.021 304.787 911.524 320.557 919.539 338.655L921.367 337.845C913.236 319.484 901.563 303.484 886.355 289.849L885.02 291.338ZM919.541 338.66C927.554 356.496 931.562 375.496 931.562 395.672H933.562C933.562 375.223 929.498 355.942 921.365 337.84L919.541 338.66ZM931.562 395.672V633.172H933.562V395.672H931.562ZM931.562 633.172C931.562 653.348 927.554 672.48 919.539 690.579L921.367 691.389C929.498 673.03 933.562 653.621 933.562 633.172H931.562ZM919.541 690.575C911.527 708.412 900.023 724.054 885.02 737.505L886.355 738.995C901.56 725.362 913.233 709.494 921.365 691.394L919.541 690.575ZM885.014 737.511C870.278 750.954 852.295 761.568 831.047 769.342L831.734 771.22C853.194 763.369 871.41 752.629 886.361 738.989L885.014 737.511ZM831.047 769.342C809.819 777.109 786.109 781 759.906 781V783C786.307 783 810.254 779.079 831.734 771.22L831.047 769.342ZM759.906 781H639.594V783H759.906V781ZM639.594 781C613.391 781 589.681 777.109 568.453 769.342L567.766 771.22C589.246 779.079 613.193 783 639.594 783V781ZM568.453 769.342C547.204 761.568 529.088 750.953 514.089 737.505L512.754 738.995C527.964 752.631 546.307 763.369 567.766 771.22L568.453 769.342ZM514.096 737.511C499.351 724.06 487.975 708.416 479.959 690.575L478.135 691.394C486.265 709.49 497.805 725.357 512.748 738.989L514.096 737.511ZM479.961 690.579C471.946 672.48 467.938 653.348 467.938 633.172H465.938C465.938 653.621 470.002 673.03 478.133 691.389L479.961 690.579ZM467.938 633.172V395.672H465.938V633.172H467.938ZM467.938 395.672C467.938 375.496 471.946 356.496 479.959 338.66L478.135 337.84C470.002 355.942 465.938 375.223 465.938 395.672H467.938ZM479.961 338.655C487.978 320.554 499.354 304.782 514.096 291.333L512.748 289.855C497.803 303.489 486.262 319.488 478.133 337.845L479.961 338.655ZM514.089 291.338C529.088 277.891 547.204 267.276 568.453 259.502L567.766 257.623C546.307 265.474 527.964 276.213 512.754 289.849L514.089 291.338ZM568.453 259.502C589.681 251.735 613.391 247.844 639.594 247.844V245.844C613.193 245.844 589.246 249.765 567.766 257.623L568.453 259.502ZM639.594 247.844H759.906V245.844H639.594V247.844Z" fill="black" mask="url(#path-1-outside-1_5_24)"/>
</g>
<path d="M150 270H208V367H150V270Z" fill="white"/>
<path d="M603 561H700V608H603V561Z" fill="white"/>
<path d="M743 561H840V608H743V561Z" fill="white"/>
<rect x="165" y="281" width="43" height="76" fill="#ABFDE9"/>
<rect x="603" y="270" width="239" height="139" fill="white"/>
<path d="M678.18 660.945C679.89 660.855 681.6 661.26 683.31 662.16C685.02 663.06 685.875 664.455 685.875 666.345C685.695 667.875 684.84 668.865 683.31 669.315C681.87 669.675 680.7 669.855 679.8 669.855C678 669.855 676.065 669.9 673.995 669.99C671.925 670.08 669.81 670.215 667.65 670.395C667.47 673.365 667.29 676.155 667.11 678.765C667.02 681.375 666.93 683.715 666.84 685.785C666.75 687.765 666.705 689.385 666.705 690.645C666.705 691.905 666.75 692.58 666.84 692.67C668.82 692.31 670.935 691.725 673.185 690.915C675.525 690.015 677.82 689.07 680.07 688.08C682.41 687 684.66 685.92 686.82 684.84C689.07 683.67 691.185 682.59 693.165 681.6C694.065 681.15 694.875 681.015 695.595 681.195C696.405 681.375 696.9 681.78 697.08 682.41C697.26 683.4 697.125 684.615 696.675 686.055C696.225 687.495 695.415 688.8 694.245 689.97C692.895 691.05 691.095 692.31 688.845 693.75C686.685 695.1 684.345 696.405 681.825 697.665C679.305 698.925 676.74 700.05 674.13 701.04C671.61 701.94 669.36 702.48 667.38 702.66C664.41 702.93 662.16 702.12 660.63 700.23C659.1 698.34 658.245 695.955 658.065 693.075C657.885 690.195 657.84 686.865 657.93 683.085C658.11 679.305 658.29 675.3 658.47 671.07C656.76 671.25 655.095 671.43 653.475 671.61C651.945 671.7 650.46 671.835 649.02 672.015C647.85 672.015 646.545 671.745 645.105 671.205C643.755 670.665 643.08 669.63 643.08 668.1C643.08 667.56 643.305 666.84 643.755 665.94C644.205 665.04 645.195 664.365 646.725 663.915C650.415 663.285 654.51 662.745 659.01 662.295C659.28 658.065 659.595 653.97 659.955 650.01C660.315 646.05 660.63 642.45 660.9 639.21C660.99 638.13 661.305 637.185 661.845 636.375C662.385 635.565 662.97 635.16 663.6 635.16C665.13 635.07 666.57 635.475 667.92 636.375C669.36 637.185 670.08 638.13 670.08 639.21C669.72 642.27 669.36 645.735 669 649.605C668.73 653.475 668.46 657.435 668.19 661.485C669.99 661.305 671.7 661.215 673.32 661.215C675.03 661.125 676.65 661.035 678.18 660.945ZM735.312 665.4C731.802 667.47 728.022 669.09 723.972 670.26C719.922 671.34 715.557 671.88 710.877 671.88C711.057 675.03 711.957 677.55 713.577 679.44C715.197 681.24 717.222 682.32 719.652 682.68C721.092 682.86 722.532 682.815 723.972 682.545C725.502 682.275 726.897 681.87 728.157 681.33C729.507 680.7 730.722 680.025 731.802 679.305C732.882 678.585 733.827 677.865 734.637 677.145C735.447 676.425 736.302 675.975 737.202 675.795C738.102 675.525 738.777 675.48 739.227 675.66C740.487 676.11 740.937 677.46 740.577 679.71C739.137 682.59 737.067 685.065 734.367 687.135C731.667 689.115 728.652 690.375 725.322 690.915C722.442 691.455 719.472 691.32 716.412 690.51C713.352 689.7 710.607 688.125 708.177 685.785C706.107 683.715 704.532 681.285 703.452 678.495C702.372 675.705 701.697 672.825 701.427 669.855C701.157 667.065 701.382 664.41 702.102 661.89C702.912 659.37 704.127 657.165 705.747 655.275C707.367 653.295 709.392 651.675 711.822 650.415C714.252 649.155 717.087 648.435 720.327 648.255C724.197 647.985 727.707 648.705 730.857 650.415C734.007 652.125 736.212 654.51 737.472 657.57C738.192 659.28 738.372 660.765 738.012 662.025C737.742 663.285 736.842 664.41 735.312 665.4ZM719.787 656.22C718.887 656.4 717.897 656.715 716.817 657.165C715.827 657.615 714.882 658.2 713.982 658.92C713.172 659.55 712.407 660.315 711.687 661.215C711.057 662.025 710.697 662.97 710.607 664.05C712.137 664.05 713.802 663.915 715.602 663.645C717.492 663.375 719.292 663.06 721.002 662.7C722.802 662.25 724.422 661.755 725.862 661.215C727.392 660.675 728.652 660.09 729.642 659.46C728.922 657.75 727.572 656.715 725.592 656.355C723.702 655.905 721.767 655.86 719.787 656.22ZM781.022 662.43C780.392 662.79 779.627 662.925 778.727 662.835C777.827 662.655 777.062 662.07 776.432 661.08C774.992 659.19 773.237 658.245 771.167 658.245C769.277 658.245 767.567 658.695 766.037 659.595C764.597 660.405 763.292 661.53 762.122 662.97C761.042 664.32 760.142 665.85 759.422 667.56C758.702 669.27 758.207 670.98 757.937 672.69C757.487 675.84 758.027 678.495 759.557 680.655C761.087 682.815 763.472 683.895 766.712 683.895C769.322 683.985 772.247 683.49 775.487 682.41C778.817 681.24 781.922 679.755 784.802 677.955C786.062 677.415 787.232 677.1 788.312 677.01C789.392 676.92 790.292 677.46 791.012 678.63C791.912 680.07 791.687 681.555 790.337 683.085C788.987 684.525 787.187 685.83 784.937 687C782.687 688.26 780.302 689.385 777.782 690.375C775.352 691.275 772.877 691.95 770.357 692.4C767.837 692.76 765.317 692.76 762.797 692.4C760.367 692.04 758.072 691.185 755.912 689.835C752.492 687.495 750.422 684.165 749.702 679.845C748.982 675.525 749.297 671.07 750.647 666.48C751.187 664.77 751.952 663.06 752.942 661.35C753.932 659.55 755.102 657.93 756.452 656.49C757.892 655.05 759.467 653.835 761.177 652.845C762.887 651.765 764.777 651.045 766.847 650.685C770.177 650.145 773.372 650.505 776.432 651.765C779.492 652.935 781.517 655.14 782.507 658.38C782.687 659.1 782.687 659.865 782.507 660.675C782.327 661.395 781.832 661.98 781.022 662.43Z" fill="black"/>
<path d="M702 313.5H743V394.5H702V313.5Z" fill="#ABFDE9"/>
<rect x="366.723" y="263.234" width="53.9119" height="65.0088" transform="rotate(45.7595 366.723 263.234)" fill="white"/>
<defs>
<filter id="filter0_d_5_24" x="0.4375" y="246.844" width="936.125" height="543.156" filterUnits="userSpaceOnUse" color-interpolation-filters="sRGB">
<feFlood flood-opacity="0" result="BackgroundImageFix"/>
<feColorMatrix in="SourceAlpha" type="matrix" values="0 0 0 0 0 0 0 0 0 0 0 0 0 0 0 0 0 0 127 0" result="hardAlpha"/>
<feOffset dy="4"/>
<feGaussianBlur stdDeviation="2"/>
<feComposite in2="hardAlpha" operator="out"/>
<feColorMatrix type="matrix" values="0 0 0 0 0 0 0 0 0 0 0 0 0 0 0 0 0 0 0.25 0"/>
<feBlend mode="normal" in2="BackgroundImageFix" result="effect1_dropShadow_5_24"/>
<feBlend mode="normal" in="SourceGraphic" in2="effect1_dropShadow_5_24" result="shape"/>
</filter>
</defs>
</svg>
