<svg width="341" height="324" viewBox="0 0 341 324" fill="none" xmlns="http://www.w3.org/2000/svg">
<path d="M138.531 55.8684C138.531 49.5404 142.718 42.1276 150.33 42.1276C157.75 42.1276 162.128 49.5404 162.128 55.8684C162.128 62.377 157.75 69.6092 150.33 69.6092C142.718 69.6092 138.531 62.377 138.531 55.8684ZM341 157.118C341 179.9 333.388 221.846 316.833 239.203C301.609 254.933 258.605 277.895 236.34 283.862L235.579 284.051V304.662C235.579 314.96 227.206 324 216.169 324C209.509 324 203.229 320.384 199.804 314.96C196.19 320.384 189.91 324 183.25 324C176.589 324 170.31 320.384 166.694 314.96C163.269 320.384 156.989 324 150.33 324C143.479 324 137.39 320.384 133.774 314.96C130.349 320.384 124.069 324 117.409 324C104.85 324 97.8091 314.056 97.8091 303.208C86.9623 310.982 74.0223 315.502 60.1319 315.502C45.4795 315.502 31.2075 310.259 19.9805 301.038C26.8304 300.849 33.6811 299.591 40.1508 297.422C26.2597 293.806 13.8911 285.489 5.51794 274.46C19.7507 277.399 36.2939 275.518 50.2362 267.408C35.5839 253.486 12.5591 230.163 4.5662 212.083C0.761255 203.585 0 192.194 0 183.154C0 151.695 13.5108 81.9042 57.4678 81.9042C64.5083 81.9042 70.0269 84.9785 72.8814 91.3059C75.332 87.8988 78.0011 84.6383 80.8736 81.543C82.2056 79.9149 84.6792 78.1075 85.631 76.2996C90.9584 68.3443 93.4327 62.9205 100.093 54.7838C121.595 28.7474 154.516 10.8483 189.91 10.8483C193.906 10.8483 197.902 11.0373 201.708 11.5719C208.938 4.15827 219.024 0 229.49 0C239.195 0 249.28 3.79674 256.131 10.3059C256.702 10.8486 257.082 11.7531 257.082 12.474C257.082 14.823 250.232 20.972 248.519 22.7799C251.374 23.6844 258.985 27.1196 258.985 30.3736C258.985 32.1826 257.082 33.6282 255.941 34.8937C276.873 52.4316 288.861 77.3828 293.428 103.237C296.282 99.9829 300.278 97.8132 304.845 97.8132C311.886 97.8132 318.736 102.334 323.874 106.673C337.765 118.426 341 140.303 341 157.118ZM125.211 56.5912C125.211 68.1628 133.583 80.0958 146.714 80.0958C159.844 80.0958 168.216 68.1628 168.216 56.5912C168.216 45.2004 159.844 33.2675 146.714 33.2675C133.583 33.2675 125.211 45.2012 125.211 56.5912ZM158.321 122.765C158.321 110.29 160.795 97.9954 164.03 85.8816C129.371 136.211 155.018 202.68 209.89 202.68C224.162 202.68 238.243 197.799 249.851 190.024C251.183 185.323 252.325 180.622 252.325 175.74C252.325 166.7 248.138 162.18 238.623 162.18C235.579 162.18 232.534 162.723 229.679 163.266C187.492 171.282 158.321 165.587 158.321 122.765ZM130.92 284.043C130.92 276.992 125.02 270.844 117.409 270.844C109.797 270.844 104.089 276.992 104.089 284.043V304.654C104.089 311.706 109.797 318.033 117.409 318.033C125.02 318.033 130.92 311.885 130.92 304.654V284.043ZM163.65 284.043C163.65 276.992 157.941 270.844 150.33 270.844C142.718 270.844 136.819 276.992 136.819 284.043V304.654C136.819 311.706 142.718 318.033 150.33 318.033C157.941 318.033 163.65 311.705 163.65 304.654V284.043ZM196.76 284.043C196.76 276.992 190.861 270.844 183.25 270.844C175.638 270.844 169.739 276.992 169.739 284.043V304.654C169.739 311.706 175.638 318.033 183.25 318.033C190.861 318.033 196.76 311.885 196.76 304.654V284.043ZM229.871 284.043C229.871 276.992 223.972 270.844 216.36 270.844C208.749 270.844 202.849 276.992 202.849 284.043V304.654C202.849 311.706 208.749 318.033 216.36 318.033C223.972 318.033 229.871 311.705 229.871 304.654V284.043ZM280.868 180.984C260.317 218.41 220.737 245.893 175.257 245.893C110.94 245.893 68.3146 192.375 68.3146 134.156C68.3146 123.489 69.6466 113.002 72.3106 102.697C58.9903 124.032 52.5207 148.621 52.5207 173.21C52.5207 211.36 69.0758 250.233 100.093 275.003C103.519 268.855 109.988 264.697 117.41 264.697C124.07 264.697 130.349 268.312 133.775 273.737C137.39 268.313 143.479 264.697 150.33 264.697C156.991 264.697 163.27 268.312 166.695 273.737C170.311 268.313 176.59 264.697 183.251 264.697C189.911 264.697 196.19 268.312 199.806 273.737C203.231 268.313 209.511 264.697 216.171 264.697C223.402 264.697 230.062 268.855 233.297 274.822C262.22 251.859 278.965 216.603 280.868 180.984ZM287.909 117.884C287.909 83.8933 264.884 50.9871 226.255 50.9871C206.085 50.9871 187.246 60.5696 173.735 74.3105C160.418 116.318 155.455 160.734 201.327 160.734C220.512 160.734 266.168 142.675 257.463 184.058C276.682 167.605 287.909 142.473 287.909 117.884Z" fill="white"/>
</svg>
