<svg width="15841" height="9554" viewBox="0 0 15841 9554" fill="none" xmlns="http://www.w3.org/2000/svg">
<g filter="url(#filter0_d_73_38)">
<path d="M4397.83 3394.1L6684.22 1037.66L6205.67 455.488L3467.32 3283.21V656.476H2762.8V6388.15H3467.32V4218.84C3542.65 4154.15 3606.89 4096.4 3660.07 4045.58C3717.68 3990.14 3781.93 3930.06 3852.83 3865.37L6026.22 6519.84L6597.82 6006.95L4397.83 3394.1ZM5009.3 32.7188C5456.83 32.7188 5862.26 102.021 6225.61 240.626C6588.95 379.249 6896.9 568.685 7149.47 808.955C7406.47 1049.21 7603.64 1331.06 7741 1654.49C7878.36 1973.31 7947.03 2312.9 7947.03 2673.31V6887.16C7947.03 7247.55 7878.36 7589.46 7741 7912.89C7603.64 8231.71 7406.47 8511.24 7149.47 8751.51C6896.9 8991.78 6588.95 9181.22 6225.61 9319.82C5862.26 9458.44 5456.83 9527.75 5009.3 9527.75H2962.2C2514.67 9527.75 2109.24 9458.44 1745.89 9319.82C1382.55 9181.22 1072.38 8991.78 815.388 8751.51C562.822 8511.24 367.86 8231.71 230.5 7912.89C93.1391 7589.46 24.459 7247.55 24.459 6887.16V2673.31C24.459 2312.9 93.1391 1973.31 230.5 1654.49C367.86 1331.06 562.822 1049.21 815.388 808.955C1072.38 568.685 1382.55 379.249 1745.89 240.626C2109.24 102.021 2514.67 32.7188 2962.2 32.7188H5009.3ZM10299.9 5653.5V6388.15H14141.5V5653.5H12579.6V1391.12H14141.5V656.476H10299.9V1391.12H11868.4V5653.5H10299.9ZM12878.7 32.7188C13326.2 32.7188 13731.7 102.021 14095 240.626C14458.4 379.249 14766.3 568.685 15018.9 808.955C15275.9 1049.21 15473 1331.06 15610.4 1654.49C15747.8 1973.31 15816.4 2312.9 15816.4 2673.31V6887.16C15816.4 7247.55 15747.8 7589.46 15610.4 7912.89C15473 8231.71 15275.9 8511.24 15018.9 8751.51C14766.3 8991.78 14458.4 9181.22 14095 9319.82C13731.7 9458.44 13326.2 9527.75 12878.7 9527.75H10831.6C10384.1 9527.75 9978.65 9458.44 9615.3 9319.82C9251.96 9181.22 8941.79 8991.78 8684.8 8751.51C8432.23 8511.24 8237.27 8231.71 8099.91 7912.89C7962.55 7589.46 7893.88 7247.55 7893.88 6887.16V2673.31C7893.88 2312.9 7962.55 1973.31 8099.91 1654.49C8237.27 1331.06 8432.23 1049.21 8684.8 808.955C8941.79 568.685 9251.96 379.249 9615.3 240.626C9978.65 102.021 10384.1 32.7188 10831.6 32.7188H12878.7Z" fill="black"/>
<mask id="mask0_73_38" style="mask-type:luminance" maskUnits="userSpaceOnUse" x="0" y="0" width="15841" height="9546">
<path d="M15840.9 0H0V9545.49H15840.9V0Z" fill="white"/>
<path d="M4397.83 3394.1L6684.22 1037.66L6205.67 455.488L3467.32 3283.21V656.476H2762.8V6388.15H3467.32V4218.84C3542.65 4154.15 3606.89 4096.4 3660.07 4045.58C3717.68 3990.14 3781.93 3930.06 3852.83 3865.37L6026.22 6519.84L6597.82 6006.95L4397.83 3394.1ZM5009.3 32.7188C5456.83 32.7188 5862.26 102.021 6225.61 240.626C6588.95 379.249 6896.9 568.685 7149.47 808.955C7406.47 1049.21 7603.64 1331.06 7741 1654.49C7878.36 1973.31 7947.03 2312.9 7947.03 2673.31V6887.16C7947.03 7247.55 7878.36 7589.46 7741 7912.89C7603.64 8231.71 7406.47 8511.24 7149.47 8751.51C6896.9 8991.78 6588.95 9181.22 6225.61 9319.82C5862.26 9458.44 5456.83 9527.75 5009.3 9527.75H2962.2C2514.67 9527.75 2109.24 9458.44 1745.89 9319.82C1382.55 9181.22 1072.38 8991.78 815.388 8751.51C562.822 8511.24 367.86 8231.71 230.5 7912.89C93.1391 7589.46 24.459 7247.55 24.459 6887.16V2673.31C24.459 2312.9 93.1391 1973.31 230.5 1654.49C367.86 1331.06 562.822 1049.21 815.388 808.955C1072.38 568.685 1382.55 379.249 1745.89 240.626C2109.24 102.021 2514.67 32.7188 2962.2 32.7188H5009.3ZM10299.9 5653.5V6388.15H14141.5V5653.5H12579.6V1391.12H14141.5V656.476H10299.9V1391.12H11868.4V5653.5H10299.9ZM12878.7 32.7188C13326.2 32.7188 13731.7 102.021 14095 240.626C14458.4 379.249 14766.3 568.685 15018.9 808.955C15275.9 1049.21 15473 1331.06 15610.4 1654.49C15747.8 1973.31 15816.4 2312.9 15816.4 2673.31V6887.16C15816.4 7247.55 15747.8 7589.46 15610.4 7912.89C15473 8231.71 15275.9 8511.24 15018.9 8751.51C14766.3 8991.78 14458.4 9181.22 14095 9319.82C13731.7 9458.44 13326.2 9527.75 12878.7 9527.75H10831.6C10384.1 9527.75 9978.65 9458.44 9615.3 9319.82C9251.96 9181.22 8941.79 8991.78 8684.8 8751.51C8432.23 8511.24 8237.27 8231.71 8099.91 7912.89C7962.55 7589.46 7893.88 7247.55 7893.88 6887.16V2673.31C7893.88 2312.9 7962.55 1973.31 8099.91 1654.49C8237.27 1331.06 8432.23 1049.21 8684.8 808.955C8941.79 568.685 9251.96 379.249 9615.3 240.626C9978.65 102.021 10384.1 32.7188 10831.6 32.7188H12878.7Z" fill="black"/>
</mask>
<g mask="url(#mask0_73_38)">
<path d="M4397.83 3394.1L4385.87 3381.48L4374.46 3393.23L4385.04 3405.81L4397.83 3394.1ZM6684.22 1037.66L6696.18 1050.29L6707.44 1038.67L6697.13 1026.12L6684.22 1037.66ZM6205.67 455.488L6218.59 443.938L6206.69 429.46L6193.69 442.874L6205.67 455.488ZM3467.32 3283.21H3450.31V3325.75L3479.3 3295.8L3467.32 3283.21ZM3467.32 656.476H3484.34V638.733H3467.32V656.476ZM2762.8 656.476V638.733H2745.79V656.476H2762.8ZM2762.8 6388.15H2745.79V6405.89H2762.8V6388.15ZM3467.32 6388.15V6405.89H3484.34V6388.15H3467.32ZM3467.32 4218.84L3456.52 4205.14L3450.31 4210.47V4218.84H3467.32ZM3660.07 4045.59L3671.57 4058.66L3671.62 4058.61L3660.07 4045.59ZM3852.83 3865.37L3865.76 3853.86L3854.58 3840.2L3841.62 3852.03L3852.83 3865.37ZM6026.22 6519.84L6013.27 6531.35L6024.36 6544.91L6037.31 6533.28L6026.22 6519.84ZM6597.82 6006.95L6608.91 6020.42L6621.93 6008.73L6610.59 5995.26L6597.82 6006.95ZM7149.47 808.955L7138.01 822.067L7138.11 822.156L7149.47 808.955ZM7741 1654.49L7725.45 1661.68L7725.48 1661.77L7741 1654.49ZM7741 7912.89L7756.52 7920.17L7756.55 7920.08L7741 7912.89ZM7149.47 8751.51L7138.11 8738.29L7138.01 8738.4L7149.47 8751.51ZM815.389 8751.51L803.92 8764.62L804.029 8764.73L815.389 8751.51ZM230.5 7912.89L214.942 7920.08L214.979 7920.17L230.5 7912.89ZM230.5 1654.49L246.021 1661.77L246.057 1661.68L230.5 1654.49ZM815.389 808.955L804.029 795.737L803.92 795.844L815.389 808.955ZM4409.8 3406.71L6696.18 1050.29L6672.26 1025.04L4385.87 3381.48L4409.8 3406.71ZM6697.13 1026.12L6218.59 443.938L6192.74 467.039L6671.29 1049.21L6697.13 1026.12ZM6193.69 442.874L3455.36 3270.59L3479.3 3295.8L6217.63 468.086L6193.69 442.874ZM3484.34 3283.21V656.476H3450.31V3283.21H3484.34ZM3467.32 638.733H2762.8V674.219H3467.32V638.733ZM2745.79 656.476V6388.15H2779.82V656.476H2745.79ZM2762.8 6405.89H3467.32V6370.41H2762.8V6405.89ZM3484.34 6388.15V4218.84H3450.31V6388.15H3484.34ZM3478.14 4232.54C3553.62 4167.73 3618.11 4109.76 3671.57 4058.66L3648.58 4032.49C3595.68 4083.06 3531.67 4140.6 3456.52 4205.14L3478.14 4232.54ZM3671.62 4058.61C3729.08 4003.29 3793.23 3943.34 3864.03 3878.73L3841.62 3852.03C3770.63 3916.79 3706.26 3976.98 3648.53 4032.54L3671.62 4058.61ZM3839.88 3876.91L6013.27 6531.35L6039.15 6508.3L3865.76 3853.86L3839.88 3876.91ZM6037.31 6533.28L6608.91 6020.42L6586.7 5993.5L6015.12 6506.39L6037.31 6533.28ZM6610.59 5995.26L4410.61 3382.39L4385.04 3405.81L6585.02 6018.66L6610.59 5995.26ZM5009.3 50.4616C5455.14 50.4616 5858.57 119.498 6219.76 257.305L6231.45 223.966C5865.97 84.5449 5458.51 14.9766 5009.3 14.9766V50.4616ZM6219.76 257.305C6581.29 395.217 6887.27 583.537 7138.01 822.067L7160.92 795.844C6906.53 553.836 6596.59 363.28 6231.45 223.966L6219.76 257.305ZM7138.11 822.156C7393.35 1060.78 7589.07 1340.58 7725.45 1661.68L7756.55 1647.31C7618.2 1321.54 7419.59 1037.66 7160.82 795.737L7138.11 822.156ZM7725.48 1661.77C7861.82 1978.22 7930.02 2315.33 7930.02 2673.31H7964.05C7964.05 2310.49 7894.9 1968.4 7756.52 1647.22L7725.48 1661.77ZM7930.02 2673.31V6887.16H7964.05V2673.31H7930.02ZM7930.02 6887.16C7930.02 7245.13 7861.82 7584.58 7725.45 7905.71L7756.55 7920.08C7894.9 7594.34 7964.05 7249.98 7964.05 6887.16H7930.02ZM7725.48 7905.64C7589.12 8222.11 7393.38 8499.64 7138.11 8738.29L7160.82 8764.73C7419.54 8522.84 7618.15 8241.31 7756.52 7920.17L7725.48 7905.64ZM7138.01 8738.4C6887.27 8976.91 6581.29 9165.23 6219.76 9303.16L6231.45 9336.48C6596.59 9197.19 6906.53 9006.63 7160.92 8764.62L7138.01 8738.4ZM6219.76 9303.16C5858.57 9440.97 5455.14 9510 5009.3 9510V9545.49C5458.51 9545.49 5865.97 9475.92 6231.45 9336.48L6219.76 9303.16ZM5009.3 9510H2962.2V9545.49H5009.3V9510ZM2962.2 9510C2516.36 9510 2112.93 9440.97 1751.74 9303.16L1740.05 9336.48C2105.53 9475.92 2512.99 9545.49 2962.2 9545.49V9510ZM1751.74 9303.16C1390.19 9165.23 1081.95 8976.89 826.746 8738.29L804.029 8764.73C1062.82 9006.67 1374.92 9197.19 1740.05 9336.48L1751.74 9303.16ZM826.855 8738.4C575.975 8499.74 382.408 8222.18 246.019 7905.64L214.979 7920.17C353.312 8241.24 549.671 8522.76 803.92 8764.62L826.855 8738.4ZM246.057 7905.71C109.676 7584.58 41.4742 7245.13 41.4742 6887.16H7.44434C7.44434 7249.98 76.6024 7594.34 214.942 7920.08L246.057 7905.71ZM41.4742 6887.16V2673.31H7.44434V6887.16H41.4742ZM41.4742 2673.31C41.4742 2315.33 109.678 1978.22 246.021 1661.77L214.979 1647.22C76.6027 1968.4 7.44434 2310.49 7.44434 2673.31H41.4742ZM246.057 1661.68C382.455 1340.52 576.019 1060.69 826.855 822.067L803.92 795.844C549.627 1037.75 353.264 1321.61 214.942 1647.31L246.057 1661.68ZM826.746 822.156C1081.95 583.572 1390.19 395.235 1751.74 257.305L1740.05 223.966C1374.92 363.263 1062.82 553.8 804.029 795.737L826.746 822.156ZM1751.74 257.305C2112.93 119.498 2516.36 50.4616 2962.2 50.4616V14.9766C2512.99 14.9766 2105.53 84.5449 1740.05 223.966L1751.74 257.305ZM2962.2 50.4616H5009.3V14.9766H2962.2V50.4616ZM10299.9 5653.5V5635.76H10282.9V5653.5H10299.9ZM10299.9 6388.15H10282.9V6405.89H10299.9V6388.15ZM14141.5 6388.15V6405.89H14158.6V6388.15H14141.5ZM14141.5 5653.5H14158.6V5635.76H14141.5V5653.5ZM12579.6 5653.5H12562.6V5671.25H12579.6V5653.5ZM12579.6 1391.12V1373.38H12562.6V1391.12H12579.6ZM14141.5 1391.12V1408.87H14158.6V1391.12H14141.5ZM14141.5 656.476H14158.6V638.733H14141.5V656.476ZM10299.9 656.476V638.733H10282.9V656.476H10299.9ZM10299.9 1391.12H10282.9V1408.87H10299.9V1391.12ZM11868.4 1391.12H11885.5V1373.38H11868.4V1391.12ZM11868.4 5653.5V5671.25H11885.5V5653.5H11868.4ZM15018.9 808.955L15007.4 822.067L15007.5 822.156L15018.9 808.955ZM15610.4 1654.49L15594.9 1661.68L15594.9 1661.77L15610.4 1654.49ZM15610.4 7912.89L15625.9 7920.17L15626 7920.08L15610.4 7912.89ZM15018.9 8751.51L15007.5 8738.29L15007.4 8738.4L15018.9 8751.51ZM8684.8 8751.51L8673.33 8764.62L8673.43 8764.73L8684.8 8751.51ZM8099.91 7912.89L8084.36 7920.08L8084.39 7920.17L8099.91 7912.89ZM8099.91 1654.49L8115.43 1661.77L8115.46 1661.68L8099.91 1654.49ZM8684.8 808.955L8673.43 795.737L8673.33 795.844L8684.8 808.955ZM10282.9 5653.5V6388.15H10316.9V5653.5H10282.9ZM10299.9 6405.89H14141.5V6370.41H10299.9V6405.89ZM14158.6 6388.15V5653.5H14124.5V6388.15H14158.6ZM14141.5 5635.76H12579.6V5671.25H14141.5V5635.76ZM12596.6 5653.5V1391.12H12562.6V5653.5H12596.6ZM12579.6 1408.87H14141.5V1373.38H12579.6V1408.87ZM14158.6 1391.12V656.476H14124.5V1391.12H14158.6ZM14141.5 638.733H10299.9V674.219H14141.5V638.733ZM10282.9 656.476V1391.12H10316.9V656.476H10282.9ZM10299.9 1408.87H11868.4V1373.38H10299.9V1408.87ZM11851.4 1391.12V5653.5H11885.5V1391.12H11851.4ZM11868.4 5635.76H10299.9V5671.25H11868.4V5635.76ZM12878.7 50.4616C13324.6 50.4616 13728 119.498 14089.2 257.305L14100.9 223.966C13735.4 84.5449 13327.9 14.9766 12878.7 14.9766V50.4616ZM14089.2 257.305C14450.7 395.217 14756.7 583.537 15007.4 822.067L15030.3 795.844C14775.9 553.836 14466 363.28 14100.9 223.966L14089.2 257.305ZM15007.5 822.156C15262.8 1060.78 15458.5 1340.58 15594.9 1661.68L15626 1647.31C15487.6 1321.54 15289 1037.66 15030.2 795.737L15007.5 822.156ZM15594.9 1661.77C15731.2 1978.22 15799.4 2315.33 15799.4 2673.31H15833.5C15833.5 2310.49 15764.3 1968.4 15625.9 1647.22L15594.9 1661.77ZM15799.4 2673.31V6887.16H15833.5V2673.31H15799.4ZM15799.4 6887.16C15799.4 7245.13 15731.2 7584.58 15594.9 7905.71L15626 7920.08C15764.3 7594.34 15833.5 7249.98 15833.5 6887.16H15799.4ZM15594.9 7905.64C15458.5 8222.11 15262.8 8499.64 15007.5 8738.29L15030.2 8764.73C15288.9 8522.84 15487.6 8241.31 15625.9 7920.17L15594.9 7905.64ZM15007.4 8738.4C14756.7 8976.91 14450.7 9165.23 14089.2 9303.16L14100.9 9336.48C14466 9197.19 14775.9 9006.63 15030.3 8764.62L15007.4 8738.4ZM14089.2 9303.16C13728 9440.97 13324.6 9510 12878.7 9510V9545.49C13327.9 9545.49 13735.4 9475.92 14100.9 9336.48L14089.2 9303.16ZM12878.7 9510H10831.6V9545.49H12878.7V9510ZM10831.6 9510C10385.8 9510 9982.34 9440.97 9621.15 9303.16L9609.46 9336.48C9974.94 9475.92 10382.4 9545.49 10831.6 9545.49V9510ZM9621.15 9303.16C9259.6 9165.23 8951.36 8976.89 8696.15 8738.29L8673.43 8764.73C8932.23 9006.67 9244.34 9197.19 9609.46 9336.48L9621.15 9303.16ZM8696.27 8738.4C8445.38 8499.74 8251.82 8222.18 8115.43 7905.64L8084.39 7920.17C8222.73 8241.24 8419.08 8522.76 8673.33 8764.62L8696.27 8738.4ZM8115.46 7905.71C7979.09 7584.58 7910.89 7245.13 7910.89 6887.16H7876.86C7876.86 7249.98 7946.01 7594.34 8084.36 7920.08L8115.46 7905.71ZM7910.89 6887.16V2673.31H7876.86V6887.16H7910.89ZM7910.89 2673.31C7910.89 2315.33 7979.09 1978.22 8115.43 1661.77L8084.39 1647.22C7946.01 1968.4 7876.86 2310.49 7876.86 2673.31H7910.89ZM8115.46 1661.68C8251.87 1340.52 8445.43 1060.69 8696.27 822.067L8673.33 795.844C8419.04 1037.75 8222.67 1321.61 8084.36 1647.31L8115.46 1661.68ZM8696.15 822.156C8951.36 583.572 9259.6 395.235 9621.15 257.305L9609.46 223.966C9244.34 363.263 8932.23 553.8 8673.43 795.737L8696.15 822.156ZM9621.15 257.305C9982.34 119.498 10385.8 50.4616 10831.6 50.4616V14.9766C10382.4 14.9766 9974.94 84.5449 9609.46 223.966L9621.15 257.305ZM10831.6 50.4616H12878.7V14.9766H10831.6V50.4616Z" fill="black"/>
</g>
</g>
<path d="M2501.2 443.562H3488.06V2164.59H2501.2V443.562Z" fill="black"/>
<path d="M10209 5606.64H11859.4V6440.54H10209V5606.64Z" fill="black"/>
<path d="M12591.1 5606.64H14241.5V6440.54H12591.1V5606.64Z" fill="black"/>
<path d="M3488.06 638.734H2756.42V1987.17H3488.06V638.734Z" fill="#ABFDE9"/>
<path d="M14275.5 443.562H10209V2909.78H14275.5V443.562Z" fill="black"/>
<path d="M11488.1 7379.92C11517.2 7378.32 11546.3 7385.51 11575.4 7401.48C11604.5 7417.45 11619.1 7442.2 11619.1 7475.73C11616 7502.88 11601.5 7520.44 11575.4 7528.43C11550.9 7534.81 11531 7538.01 11515.7 7538.01C11485.1 7538.01 11452.2 7538.8 11416.9 7540.4C11381.7 7542 11345.7 7544.39 11309 7547.59C11305.9 7600.28 11302.9 7649.78 11299.8 7696.09C11298.3 7742.4 11296.7 7783.92 11295.2 7820.64C11293.7 7855.78 11292.9 7884.52 11292.9 7906.87C11292.9 7929.23 11293.7 7941.21 11295.2 7942.8C11328.9 7936.42 11364.9 7926.04 11403.2 7911.66C11443 7895.7 11482 7878.93 11520.3 7861.36C11560.1 7842.2 11598.4 7823.04 11635.2 7803.88C11673.4 7783.12 11709.4 7763.96 11743.1 7746.39C11758.4 7738.41 11772.2 7736.01 11784.5 7739.21C11798.2 7742.4 11806.7 7749.59 11809.7 7760.76C11812.8 7778.33 11810.5 7799.89 11802.8 7825.44C11795.2 7850.98 11781.4 7874.14 11761.5 7894.9C11738.5 7914.06 11707.9 7936.42 11669.6 7961.96C11632.9 7985.92 11593 8009.07 11550.2 8031.43C11507.3 8053.78 11463.6 8073.74 11419.2 8091.31C11376.4 8107.28 11338.1 8116.86 11304.4 8120.05C11253.9 8124.84 11215.6 8110.47 11189.5 8076.94C11163.5 8043.4 11149 8001.09 11145.9 7949.99C11142.8 7898.89 11142.1 7839.81 11143.6 7772.74C11146.7 7705.67 11149.7 7634.61 11152.8 7559.56C11123.7 7562.76 11095.4 7565.95 11067.8 7569.14C11041.8 7570.74 11016.5 7573.14 10992 7576.33C10972.1 7576.33 10949.9 7571.54 10925.4 7561.96C10902.4 7552.38 10890.9 7534.01 10890.9 7506.87C10890.9 7497.29 10894.8 7484.51 10902.4 7468.54C10910.1 7452.58 10926.9 7440.6 10952.9 7432.62C11015.7 7421.44 11085.4 7411.86 11162 7403.87C11166.6 7328.82 11171.9 7256.17 11178.1 7185.91C11184.2 7115.65 11189.5 7051.77 11194.1 6994.29C11195.7 6975.12 11201 6958.36 11210.2 6943.99C11219.4 6929.61 11229.4 6922.43 11240.1 6922.43C11266.1 6920.83 11290.6 6928.02 11313.6 6943.99C11338.1 6958.36 11350.3 6975.12 11350.3 6994.29C11344.2 7048.58 11338.1 7110.06 11332 7178.72C11327.4 7247.38 11322.8 7317.64 11318.2 7389.5C11348.8 7386.31 11377.9 7384.71 11405.5 7384.71C11434.6 7383.11 11462.1 7381.52 11488.1 7379.92ZM12460.2 7458.96C12400.5 7495.69 12336.2 7524.43 12267.3 7545.19C12198.4 7564.35 12124.1 7573.94 12044.5 7573.94C12047.5 7629.82 12062.9 7674.54 12090.4 7708.07C12118 7740.01 12152.4 7759.17 12193.8 7765.55C12218.3 7768.75 12242.8 7767.95 12267.3 7763.16C12293.3 7758.37 12317.1 7751.18 12338.5 7741.6C12361.5 7730.42 12382.1 7718.45 12400.5 7705.67C12418.9 7692.9 12435 7680.12 12448.8 7667.35C12462.5 7654.58 12477.1 7646.59 12492.4 7643.4C12507.7 7638.61 12519.2 7637.81 12526.9 7641C12548.3 7648.99 12556 7672.94 12549.8 7712.86C12525.3 7763.96 12490.1 7807.87 12444.2 7844.6C12398.2 7879.73 12346.9 7902.08 12290.3 7911.66C12241.3 7921.25 12190.7 7918.85 12138.7 7904.48C12086.6 7890.11 12039.9 7862.16 11998.5 7820.64C11963.3 7783.92 11936.5 7740.8 11918.2 7691.3C11899.8 7641.8 11888.3 7590.7 11883.7 7538.01C11879.1 7488.5 11882.9 7441.4 11895.2 7396.69C11909 7351.98 11929.6 7312.85 11957.2 7279.32C11984.8 7244.19 12019.2 7215.45 12060.6 7193.09C12101.9 7170.74 12150.1 7157.96 12205.3 7154.77C12271.1 7149.98 12330.8 7162.75 12384.4 7193.09C12438 7223.43 12475.6 7265.75 12497 7320.04C12509.2 7350.38 12512.3 7376.73 12506.2 7399.08C12501.6 7421.44 12486.3 7441.4 12460.2 7458.96ZM12196.1 7296.09C12180.8 7299.28 12163.9 7304.87 12145.6 7312.85C12128.7 7320.84 12112.6 7331.22 12097.3 7343.99C12083.5 7355.17 12070.5 7368.74 12058.3 7384.71C12047.5 7399.08 12041.4 7415.85 12039.9 7435.01C12065.9 7435.01 12094.3 7432.62 12124.9 7427.83C12157 7423.04 12187.7 7417.45 12216.8 7411.06C12247.4 7403.07 12275 7394.29 12299.5 7384.71C12325.5 7375.13 12346.9 7364.75 12363.8 7353.57C12351.5 7323.23 12328.5 7304.87 12294.9 7298.48C12262.7 7290.5 12229.8 7289.7 12196.1 7296.09ZM13238 7406.27C13227.3 7412.66 13214.3 7415.05 13198.9 7413.45C13183.6 7410.26 13170.6 7399.88 13159.9 7382.32C13135.4 7348.78 13105.5 7332.02 13070.3 7332.02C13038.2 7332.02 13009.1 7340 12983 7355.97C12958.5 7370.34 12936.3 7390.3 12916.4 7415.85C12898 7439.8 12882.7 7466.95 12870.5 7497.29C12858.2 7527.63 12849.8 7557.97 12845.2 7588.31C12837.6 7644.2 12846.7 7691.3 12872.8 7729.63C12898.8 7767.95 12939.4 7787.11 12994.5 7787.11C13038.9 7788.71 13088.7 7779.93 13143.8 7760.76C13200.5 7740.01 13253.3 7713.66 13302.3 7681.72C13323.8 7672.14 13343.7 7666.55 13362 7664.95C13380.4 7663.36 13395.7 7672.94 13408 7693.7C13423.3 7719.25 13419.5 7745.59 13396.5 7772.74C13373.5 7798.29 13342.9 7821.44 13304.6 7842.2C13266.3 7864.56 13225.7 7884.52 13182.9 7902.08C13141.5 7918.05 13099.4 7930.03 13056.5 7938.01C13013.7 7944.4 12970.8 7944.4 12927.9 7938.01C12886.6 7931.63 12847.5 7916.46 12810.8 7892.5C12752.6 7850.99 12717.3 7791.9 12705.1 7715.25C12692.8 7638.61 12698.2 7559.56 12721.2 7478.13C12730.4 7447.79 12743.4 7417.45 12760.2 7387.11C12777.1 7355.17 12797 7326.43 12819.9 7300.88C12844.4 7275.33 12871.2 7253.77 12900.3 7236.21C12929.4 7217.04 12961.6 7204.27 12996.8 7197.88C13053.5 7188.3 13107.8 7194.69 13159.9 7217.04C13212 7237.8 13246.4 7276.93 13263.3 7334.41C13266.3 7347.19 13266.3 7360.76 13263.3 7375.13C13260.2 7387.9 13251.8 7398.28 13238 7406.27Z" fill="#ABFDE9"/>
<path d="M11893.4 1215.36H12591.1V2652.51H11893.4V1215.36Z" fill="#ABFDE9"/>
<path d="M6828.7 1008.8L6188.72 323.52L5396.28 1128.23L6036.26 1813.51L6828.7 1008.8Z" fill="black"/>
<defs>
<filter id="filter0_d_73_38" x="3.44434" y="14.9766" width="15834" height="9538.51" filterUnits="userSpaceOnUse" color-interpolation-filters="sRGB">
<feFlood flood-opacity="0" result="BackgroundImageFix"/>
<feColorMatrix in="SourceAlpha" type="matrix" values="0 0 0 0 0 0 0 0 0 0 0 0 0 0 0 0 0 0 127 0" result="hardAlpha"/>
<feOffset dy="4"/>
<feGaussianBlur stdDeviation="2"/>
<feComposite in2="hardAlpha" operator="out"/>
<feColorMatrix type="matrix" values="0 0 0 0 0 0 0 0 0 0 0 0 0 0 0 0 0 0 0.25 0"/>
<feBlend mode="normal" in2="BackgroundImageFix" result="effect1_dropShadow_73_38"/>
<feBlend mode="normal" in="SourceGraphic" in2="effect1_dropShadow_73_38" result="shape"/>
</filter>
</defs>
</svg>
