<svg width="10346" height="10128" viewBox="0 0 10346 10128" fill="none" xmlns="http://www.w3.org/2000/svg">
<path d="M4203.06 1746.4C4203.06 1548.6 4330.09 1316.88 4561.04 1316.88C4786.16 1316.88 4918.99 1548.6 4918.99 1746.4C4918.99 1949.86 4786.16 2175.93 4561.04 2175.93C4330.09 2175.93 4203.06 1949.86 4203.06 1746.4ZM10346 4911.39C10346 5623.54 10115.1 6934.74 9612.77 7477.31C9150.87 7969.02 7846.12 8686.79 7170.6 8873.32L7147.51 8879.22V9523.51C7147.51 9845.42 6893.47 10128 6558.61 10128C6356.54 10128 6166 10015 6062.09 9845.42C5952.44 10015 5761.9 10128 5559.84 10128C5357.74 10128 5167.24 10015 5057.53 9845.42C4953.61 10015 4763.07 10128 4561.04 10128C4353.18 10128 4168.44 10015 4058.73 9845.42C3954.81 10015 3764.28 10128 3562.21 10128C3181.17 10128 2967.55 9817.16 2967.55 9478.06C2638.45 9721.07 2245.85 9862.36 1824.41 9862.36C1379.86 9862.36 946.841 9698.47 606.212 9410.22C814.039 9404.32 1021.89 9364.99 1218.18 9297.19C796.724 9184.16 421.458 8924.17 167.415 8579.42C599.24 8671.29 1101.16 8612.49 1524.18 8358.98C1079.62 7923.78 381.045 7194.73 138.539 6629.56C23.0966 6363.92 0 6007.84 0 5725.26C0 4741.87 409.92 2560.26 1743.58 2560.26C1957.19 2560.26 2124.63 2656.36 2211.23 2854.15C2285.59 2747.65 2366.57 2645.73 2453.72 2548.97C2494.13 2498.08 2569.18 2441.58 2598.06 2385.07C2759.69 2136.39 2834.76 1966.85 3036.84 1712.5C3689.21 898.622 4688.04 339.11 5761.9 339.11C5883.14 339.11 6004.38 345.018 6119.86 361.729C6339.22 129.984 6645.23 0 6962.77 0C7257.22 0 7563.2 118.683 7771.06 322.155C7788.38 339.119 7799.91 367.393 7799.91 389.928C7799.91 463.356 7592.08 655.569 7540.11 712.083C7626.73 740.357 7857.65 847.739 7857.65 949.456C7857.65 1006 7799.91 1051.19 7765.29 1090.75C8400.38 1638.97 8764.09 2418.93 8902.66 3227.11C8989.25 3125.39 9110.49 3057.57 9249.05 3057.57C9462.68 3057.57 9670.51 3198.89 9826.39 3334.52C10247.8 3701.91 10346 4385.77 10346 4911.39ZM3798.92 1769C3798.92 2130.72 4052.93 2503.74 4451.33 2503.74C4849.7 2503.74 5103.7 2130.72 5103.7 1769C5103.7 1412.93 4849.7 1039.92 4451.33 1039.92C4052.93 1039.92 3798.92 1412.96 3798.92 1769ZM4803.49 3837.54C4803.49 3447.58 4878.55 3063.26 4976.7 2684.6C3925.14 4257.85 4703.27 6335.63 6368.1 6335.63C6801.11 6335.63 7228.33 6183.05 7580.52 5940.01C7620.94 5793.06 7655.58 5646.11 7655.58 5493.5C7655.58 5210.92 7528.55 5069.63 7239.86 5069.63C7147.51 5069.63 7055.12 5086.6 6968.5 5103.57C5688.54 5354.15 4803.49 5176.13 4803.49 3837.54ZM3972.14 8878.97C3972.14 8658.56 3793.13 8466.38 3562.21 8466.38C3331.26 8466.38 3158.08 8658.56 3158.08 8878.97V9523.26C3158.08 9743.7 3331.26 9941.48 3562.21 9941.48C3793.13 9941.48 3972.14 9749.29 3972.14 9523.26V8878.97ZM4965.17 8878.97C4965.17 8658.56 4791.96 8466.38 4561.04 8466.38C4330.09 8466.38 4151.11 8658.56 4151.11 8878.97V9523.26C4151.11 9743.7 4330.09 9941.48 4561.04 9941.48C4791.96 9941.48 4965.17 9743.67 4965.17 9523.26V8878.97ZM5969.73 8878.97C5969.73 8658.56 5790.76 8466.38 5559.84 8466.38C5328.89 8466.38 5149.91 8658.56 5149.91 8878.97V9523.26C5149.91 9743.7 5328.89 9941.48 5559.84 9941.48C5790.76 9941.48 5969.73 9749.29 5969.73 9523.26V8878.97ZM6974.33 8878.97C6974.33 8658.56 6795.35 8466.38 6564.4 8466.38C6333.48 8466.38 6154.47 8658.56 6154.47 8878.97V9523.26C6154.47 9743.7 6333.48 9941.48 6564.4 9941.48C6795.35 9941.48 6974.33 9743.67 6974.33 9523.26V8878.97ZM8521.58 5657.43C7898.06 6827.33 6697.2 7686.43 5317.33 7686.43C3365.94 7686.43 2072.68 6013.5 2072.68 4193.62C2072.68 3860.18 2113.09 3532.36 2193.92 3210.23C1789.78 3877.15 1593.49 4645.78 1593.49 5414.42C1593.49 6606.96 2095.77 7822.1 3036.84 8596.39C3140.78 8404.21 3337.06 8274.23 3562.24 8274.23C3764.31 8274.23 3954.81 8387.23 4058.76 8556.82C4168.44 8387.27 4353.18 8274.23 4561.04 8274.23C4763.13 8274.23 4953.64 8387.23 5057.56 8556.82C5167.27 8387.27 5357.77 8274.23 5559.87 8274.23C5761.93 8274.23 5952.44 8387.23 6062.15 8556.82C6166.06 8387.27 6356.6 8274.23 6558.67 8274.23C6778.06 8274.23 6980.12 8404.21 7078.27 8590.73C7955.8 7872.93 8463.85 6770.85 8521.58 5657.43ZM8735.21 3684.97C8735.21 2622.44 8036.63 1593.82 6864.62 1593.82C6252.66 1593.82 5681.08 1893.36 5271.15 2322.89C4867.11 3636.01 4716.53 5024.43 6108.3 5024.43C6690.37 5024.43 8075.58 4459.92 7811.47 5753.52C8394.58 5239.21 8735.21 4453.6 8735.21 3684.97Z" fill="black"/>
</svg>
